<?xml version="1.0" standalone="no"?>
<!DOCTYPE svg PUBLIC "-//W3C//DTD SVG 20010904//EN"
 "http://www.w3.org/TR/2001/REC-SVG-20010904/DTD/svg10.dtd">
<svg version="1.0" xmlns="http://www.w3.org/2000/svg"
 width="1080.000000pt" height="1080.000000pt" viewBox="0 0 1080.000000 1080.000000"
 preserveAspectRatio="xMidYMid meet">

<g transform="translate(0.000000,1080.000000) scale(0.100000,-0.100000)"
fill="#000000" stroke="none">
<path d="M6360 7040 c-144 -10 -407 -60 -436 -83 -32 -25 -30 -35 9 -52 29
-12 30 -14 12 -21 -22 -9 -105 -9 -240 1 -122 8 -182 -10 -201 -63 0 -1 -23 7
-49 19 l-49 22 -93 -23 c-70 -17 -105 -21 -148 -15 -43 5 -62 3 -80 -9 -14
-10 -46 -16 -77 -16 -35 0 -67 -7 -93 -21 -38 -20 -40 -21 -69 -3 -38 22 -115
23 -147 2 -14 -8 -53 -18 -89 -21 -36 -3 -85 -10 -110 -15 -25 -6 -121 -15
-215 -21 -172 -12 -223 -25 -211 -56 3 -9 -13 -19 -47 -32 -59 -21 -70 -49
-27 -70 14 -7 18 -13 10 -13 -86 -1 -562 -89 -665 -122 -75 -25 -90 -42 -52
-59 20 -9 79 -5 269 15 248 27 494 40 903 51 289 7 391 18 585 60 208 46 347
70 568 100 221 30 215 30 174 5 -37 -22 -38 -40 -4 -55 12 -5 22 -13 22 -17 0
-5 -69 -8 -153 -8 -116 0 -158 -3 -172 -14 -14 -10 -25 -11 -38 -5 -19 11
-118 0 -282 -31 -186 -36 -289 -50 -435 -61 -80 -5 -200 -21 -267 -34 -67 -14
-204 -32 -305 -40 -255 -22 -475 -48 -820 -99 -164 -23 -298 -39 -298 -34 0
15 -30 8 -37 -8 -14 -37 -17 -38 502 42 272 42 748 94 755 83 5 -8 151 14 169
26 22 13 198 36 314 40 113 4 244 23 522 76 177 33 168 33 189 10 19 -21 19
-22 -2 -44 -12 -13 -22 -29 -22 -35 0 -19 55 -14 84 9 33 26 33 52 0 68 -15 6
-24 14 -21 18 4 3 86 7 184 7 143 2 187 6 226 20 26 10 47 21 47 26 0 10 -51
20 -100 20 -78 0 -73 12 16 41 91 29 115 43 98 58 -19 18 -651 -73 -874 -126
-231 -55 -301 -60 -1177 -92 -127 -5 -236 -12 -241 -15 -15 -9 -270 -36 -332
-35 l-55 2 45 7 c25 4 117 23 205 43 88 20 246 48 350 63 183 25 225 35 225
53 0 5 -28 14 -62 21 -49 10 -59 14 -43 21 11 4 30 8 43 8 32 1 67 38 52 56
-12 14 -18 14 277 34 81 6 157 17 178 25 24 10 51 13 81 9 33 -4 49 -2 62 11
10 9 38 19 63 22 37 5 47 3 63 -15 11 -12 29 -21 42 -21 25 0 94 37 94 51 0 5
12 4 26 -1 38 -15 70 -12 105 9 25 16 37 17 61 9 32 -11 99 -5 188 18 54 14
61 13 112 -6 70 -26 77 -26 85 10 3 17 11 30 17 30 6 0 50 5 99 10 73 9 92 8
117 -5 39 -20 98 -19 193 4 86 20 112 36 87 51 -8 5 -31 10 -50 10 -42 0 -74
16 -50 24 40 14 298 57 395 66 61 6 263 13 450 17 289 5 358 3 460 -11 66 -9
167 -24 225 -32 122 -17 142 -22 135 -34 -3 -5 6 -12 21 -16 25 -6 320 0 538
11 l91 5 -108 -24 c-148 -34 -168 -41 -277 -99 -52 -28 -153 -71 -224 -96 -71
-25 -131 -52 -134 -58 -3 -10 49 -13 235 -13 231 0 304 -7 326 -29 18 -18 1
-23 -100 -32 -122 -11 -411 -51 -648 -89 -216 -34 -535 -77 -663 -89 -51 -4
-96 -11 -100 -15 -11 -11 20 -25 71 -32 26 -4 49 -10 52 -14 16 -27 -1034
-182 -1350 -199 -88 -5 -173 -14 -189 -20 -17 -7 -53 -9 -93 -5 -82 9 -438
-25 -501 -47 -33 -11 -41 -32 -19 -46 6 -4 80 -10 162 -13 135 -5 146 -6 110
-17 -22 -6 -112 -17 -200 -23 -88 -6 -172 -17 -186 -24 -22 -11 -29 -11 -45 1
-23 17 -108 15 -174 -3 -25 -6 -63 -15 -85 -19 -39 -7 -39 -7 -22 13 25 28 9
34 -65 26 -86 -9 -111 -20 -105 -43 4 -17 0 -18 -34 -14 -65 9 -87 -2 -92 -45
l-4 -37 -1 42 c-2 37 -5 44 -29 50 -70 19 -471 3 -637 -26 -39 -6 -60 -27 -34
-35 7 -2 39 -12 71 -22 89 -26 81 -35 -82 -93 -119 -42 -106 -50 81 -48 137 2
181 -2 273 -21 61 -13 120 -25 132 -28 15 -3 20 -9 16 -20 -3 -9 0 -19 6 -24
8 -4 1 -9 -18 -13 -50 -10 -39 -35 17 -39 35 -2 -73 -27 -423 -96 -517 -103
-640 -132 -658 -155 -7 -8 -30 -17 -52 -20 -356 -49 -335 -45 -335 -62 0 -12
24 -15 137 -15 127 0 138 -2 160 -22 22 -21 36 -23 196 -28 164 -5 170 -6 119
-18 -73 -17 -125 -40 -117 -52 3 -6 -1 -13 -9 -16 -21 -8 -21 -44 1 -44 31 0
2 -14 -60 -30 -43 -10 -63 -20 -65 -32 -3 -15 4 -18 50 -18 104 0 277 57 271
88 -5 24 63 51 147 58 56 5 88 12 100 24 13 13 64 19 287 32 278 17 316 24
366 67 18 15 19 14 12 -39 -18 -139 -20 -171 -15 -257 3 -51 9 -95 12 -98 10
-10 48 33 48 54 0 11 4 23 10 26 12 8 34 59 48 110 5 22 17 65 26 95 8 30 18
83 22 116 3 34 9 66 13 71 6 9 59 32 169 73 25 10 35 10 47 0 17 -14 78 -3 72
13 -2 7 -17 15 -33 18 -16 4 -24 7 -17 8 30 3 142 79 207 141 60 57 73 65 84
54 9 -10 37 -14 88 -14 65 0 84 5 149 35 84 40 110 67 93 98 -8 16 -6 23 10
36 11 9 22 23 26 31 3 8 3 -9 0 -39 -4 -38 -3 -56 6 -61 18 -11 59 8 94 44 16
16 41 31 55 32 14 1 74 5 133 8 132 8 213 22 246 44 22 14 25 14 34 -1 12 -23
47 -21 156 8 141 38 162 52 162 112 0 25 0 25 79 21 69 -4 83 -8 125 -38 25
-18 46 -37 46 -42 0 -4 7 -8 16 -8 12 0 10 -10 -13 -49 -15 -28 -25 -53 -21
-56 10 -10 378 6 378 16 0 5 -76 9 -169 9 l-168 0 10 40 c10 34 8 43 -9 66
-11 15 -44 41 -74 58 -95 54 -230 39 -230 -26 0 -28 -53 -54 -157 -80 -87 -20
-96 -21 -120 -6 -24 14 -29 14 -67 -3 -41 -17 -148 -34 -278 -42 l-66 -5 14
41 c10 29 11 43 3 53 -16 19 -75 34 -136 34 -59 0 -73 -14 -73 -72 0 -18 -9
-50 -20 -71 -12 -21 -18 -47 -15 -57 13 -40 -119 -102 -219 -101 -32 0 -60 2
-62 4 -2 1 6 23 18 47 30 61 30 159 -1 218 -16 32 -18 44 -9 47 19 7 223 25
288 26 80 0 125 18 125 49 0 32 -22 38 -165 40 -83 1 -107 4 -86 10 41 13 305
38 526 50 435 25 1211 130 1540 208 78 18 98 40 50 53 -38 10 -21 13 305 58
165 23 419 59 565 80 146 22 314 43 373 49 120 10 144 22 133 66 -3 14 -16 30
-27 36 -12 7 -107 14 -227 17 -118 4 -198 10 -187 14 11 4 56 22 100 39 44 17
101 45 128 61 54 33 160 70 297 102 81 19 95 25 95 42 0 20 -6 20 -316 17
-280 -3 -320 -2 -349 13 -47 24 -213 54 -368 65 -150 11 -740 11 -892 0z
m-850 -604 c0 -2 -8 -10 -17 -17 -16 -13 -17 -12 -4 4 13 16 21 21 21 13z
m-1513 -492 c-3 -3 -12 -4 -19 -1 -8 3 -5 6 6 6 11 1 17 -2 13 -5z m-279 -30
l52 -7 0 -46 c0 -54 -36 -328 -51 -382 -7 -29 -16 -38 -41 -45 -26 -8 -33 -15
-33 -34 0 -21 7 -27 38 -34 32 -8 37 -13 37 -38 0 -45 -28 -88 -66 -104 -21
-9 -117 -20 -252 -29 -257 -18 -294 -22 -347 -40 -22 -8 -78 -18 -125 -24 -82
-9 -86 -11 -120 -51 -27 -32 -49 -45 -98 -60 -76 -24 -99 -26 -84 -7 6 7 10
26 9 42 -2 26 3 31 43 46 25 10 64 22 88 29 30 8 42 16 42 29 0 28 -20 32
-197 40 -99 5 -168 13 -177 20 -8 6 -38 15 -67 18 l-53 6 93 19 c52 10 106 25
122 34 45 23 275 75 717 164 222 44 413 85 425 91 20 11 20 12 2 25 -10 8 -28
14 -40 14 -18 0 -20 5 -17 34 3 27 -1 37 -20 50 -44 29 -189 57 -325 63 l-133
6 49 23 c78 36 86 80 19 108 -27 12 -18 14 103 25 74 7 135 14 138 17 7 6 209
5 269 -2z m1079 -76 c-2 -13 -4 -5 -4 17 -1 22 1 32 4 23 2 -10 2 -28 0 -40z
m-519 5 c-16 -2 -40 -2 -55 0 -16 2 -3 4 27 4 30 0 43 -2 28 -4z m62 -13 c8
-5 11 -12 8 -16 -4 -3 -14 1 -23 10 -18 17 -9 21 15 6z m-40 -34 c0 -8 -20
-40 -44 -73 -71 -94 -163 -159 -241 -170 l-48 -6 6 54 c4 30 10 82 13 116 l6
62 52 10 c85 17 98 18 179 20 60 1 77 -2 77 -13z m-200 -251 c0 -7 -101 -55
-116 -55 -6 0 -17 -7 -24 -15 -21 -25 -30 -17 -30 25 0 22 5 40 10 40 6 0 10
-4 10 -10 0 -18 86 -7 148 19 1 1 2 -1 2 -4z m-345 -122 c-5 -41 -10 -52 -18
-44 -6 6 -28 11 -49 11 -51 0 -48 14 5 26 38 8 43 13 52 48 12 52 19 28 10
-41z"/>
<path d="M2953 6224 c-77 -41 -166 -66 -333 -94 -111 -18 -365 -50 -404 -50
-18 0 -18 1 -3 18 25 27 21 49 -10 59 -34 12 -136 2 -343 -32 -90 -14 -195
-25 -251 -25 -106 0 -102 2 -203 -88 -27 -24 -91 -64 -143 -89 -103 -50 -143
-77 -143 -99 0 -7 -31 -34 -68 -59 -73 -47 -92 -75 -92 -131 0 -45 21 -53 68
-27 42 24 99 42 230 77 l92 25 0 -34 c0 -66 -189 -230 -364 -317 -63 -31 -83
-57 -56 -73 6 -3 10 -17 10 -31 0 -15 6 -24 15 -24 15 0 20 26 9 54 -3 9 -13
16 -22 16 -25 0 -2 16 43 30 56 17 106 48 134 83 13 16 45 38 70 49 48 20 111
73 111 93 0 7 12 18 26 25 32 18 54 59 54 102 0 62 -6 63 -131 29 -149 -40
-228 -67 -251 -88 -17 -15 -18 -15 -18 6 0 41 29 78 84 109 62 35 91 69 75 88
-7 8 -2 14 17 18 70 18 220 100 264 146 68 69 94 80 197 80 90 0 257 23 441
61 85 18 107 20 130 10 26 -12 26 -13 7 -27 -11 -7 -25 -18 -32 -24 -7 -5 -20
-10 -30 -10 -26 0 -47 -16 -39 -29 8 -12 76 -15 76 -3 0 4 39 8 88 9 211 6
672 93 672 127 0 14 84 40 111 34 8 -2 15 6 17 20 5 32 -24 29 -105 -14z"/>
<path d="M4305 6070 c-154 -12 -188 -26 -159 -68 10 -14 26 -22 46 -22 43 0
220 48 237 65 16 16 6 36 -17 33 -9 0 -57 -4 -107 -8z m-30 -46 c-58 -16 -114
-19 -99 -5 10 11 51 18 109 19 l40 0 -50 -14z"/>
<path d="M6953 5990 c-29 -12 -38 -30 -58 -125 -10 -44 -20 -83 -24 -87 -4 -4
-182 -21 -396 -38 -215 -16 -417 -32 -450 -36 -109 -11 -53 4 95 26 145 22
180 32 180 50 0 7 -6 7 -17 1 -10 -6 -81 -17 -158 -26 -196 -22 -250 -42 -209
-76 13 -10 68 -8 292 15 230 23 680 51 688 43 1 -1 -8 -45 -21 -97 -47 -195
-77 -386 -82 -516 -8 -188 4 -204 145 -204 50 0 58 3 85 34 38 42 59 116 43
148 -20 41 -48 33 -84 -22 -54 -84 -61 -65 -41 105 5 50 12 113 15 140 5 50
60 347 70 374 3 11 7 12 16 3 20 -20 86 -14 108 8 11 11 20 24 20 29 0 4 28
12 63 15 42 5 67 13 77 26 14 17 44 19 350 29 415 14 480 14 460 1 -8 -5 -37
-10 -63 -10 -86 0 -121 -44 -54 -68 18 -6 41 -18 52 -26 18 -13 17 -14 -8 -30
-16 -11 -45 -18 -74 -17 -59 0 -83 -6 -83 -23 0 -20 65 -28 256 -31 145 -3
177 -1 205 13 19 9 34 24 34 32 0 13 -21 15 -127 15 -69 0 -129 3 -133 7 -29
28 234 67 470 68 125 1 283 -7 323 -16 15 -3 22 -10 19 -19 -13 -32 19 -38
181 -31 86 4 182 9 212 12 30 3 50 1 43 -3 -8 -6 -3 -13 18 -22 33 -14 39 -45
12 -60 -44 -23 -708 -91 -893 -91 -63 0 -122 -5 -130 -10 -29 -18 5 -30 85
-29 138 0 158 0 255 -7 52 -4 222 -6 377 -5 295 1 499 -11 517 -30 8 -9 -27
-10 -141 -5 -130 6 -153 5 -153 -7 0 -10 20 -18 63 -26 77 -13 410 -57 492
-66 33 -3 77 -8 99 -11 25 -4 36 -3 32 4 -3 6 0 12 6 15 7 2 -14 7 -47 11
-185 21 -397 48 -436 55 -42 8 -41 9 28 10 78 1 93 9 64 35 -23 21 -228 35
-531 37 -217 1 -457 14 -324 17 170 5 550 54 641 83 17 5 34 17 37 25 9 23
-11 61 -41 81 -25 16 -48 18 -234 15 l-206 -3 -7 24 c-3 14 -16 27 -28 31 -36
9 -523 6 -629 -4 -110 -11 -175 -33 -185 -62 -10 -33 12 -42 109 -49 91 -6 90
-6 -42 -7 l-134 -2 21 23 c37 39 23 71 -43 98 -34 14 -41 11 62 25 24 3 50 12
59 21 14 14 14 17 -1 32 -31 31 -771 10 -839 -25 -17 -8 -55 -19 -85 -24 -36
-6 -60 -17 -77 -35 -22 -24 -84 -37 -84 -17 0 4 9 40 20 80 27 98 26 147 -2
166 -30 19 -97 28 -125 16z"/>
<path d="M2818 5892 c-97 -10 -138 -18 -138 -27 0 -9 31 -15 107 -20 126 -9
196 1 201 29 4 16 -14 38 -28 34 -3 0 -67 -8 -142 -16z"/>
<path d="M2550 5859 c-75 -10 -216 -51 -245 -73 -16 -11 -17 -17 -8 -27 10
-10 30 -9 96 4 156 31 284 74 266 91 -12 11 -50 12 -109 5z"/>
<path d="M7640 5770 c-111 -7 -153 -21 -148 -48 5 -25 64 -35 194 -30 103 4
128 9 178 31 35 16 56 32 54 39 -5 16 -122 19 -278 8z m190 -32 c-30 -13 -299
-24 -287 -12 8 9 139 20 252 22 51 1 56 -1 35 -10z"/>
<path d="M2805 5720 c-11 -17 40 -34 64 -21 12 7 19 16 16 22 -8 12 -72 12
-80 -1z"/>
<path d="M1794 5699 c-10 -17 11 -31 42 -27 18 2 30 10 32 21 3 13 -4 17 -32
17 -19 0 -38 -5 -42 -11z"/>
<path d="M8594 5699 c-3 -6 0 -15 7 -20 30 -19 89 -3 75 20 -4 6 -22 11 -41
11 -19 0 -37 -5 -41 -11z"/>
<path d="M8795 5680 c-12 -20 17 -40 57 -40 46 0 78 15 78 35 0 12 -15 15 -64
15 -36 0 -68 -5 -71 -10z"/>
<path d="M7770 5636 c-27 -7 -45 -18 -45 -26 0 -12 17 -16 74 -18 86 -3 109 9
72 39 -26 21 -37 22 -101 5z m67 -22 c-3 -3 -12 -4 -19 -1 -8 3 -5 6 6 6 11 1
17 -2 13 -5z"/>
<path d="M5624 5525 c-79 -95 -99 -113 -111 -104 -15 13 -126 158 -141 185 -7
12 -17 15 -36 10 -30 -7 -106 -72 -106 -90 0 -6 41 -58 91 -116 50 -58 95
-112 99 -121 7 -13 -14 -45 -92 -140 -56 -68 -121 -146 -145 -174 -50 -58 -54
-75 -15 -75 55 1 156 73 273 193 l86 88 76 -88 c148 -172 220 -242 255 -248
28 -6 32 -4 32 14 0 11 -5 23 -11 27 -6 3 -9 15 -6 25 3 12 -11 43 -36 81 -23
34 -46 68 -52 77 -19 28 -114 156 -138 186 l-25 30 62 66 c33 36 87 94 118
130 l56 64 -21 23 c-19 20 -98 72 -111 72 -3 0 -49 -52 -102 -115z"/>
<path d="M4765 5569 c-27 -26 -67 -56 -87 -66 -21 -10 -38 -21 -38 -24 0 -11
79 -79 91 -79 15 0 8 -47 -25 -185 -15 -66 -26 -139 -26 -182 l0 -73 42 -26
c23 -15 55 -30 72 -35 28 -8 34 -6 58 23 15 18 30 42 34 52 4 11 19 37 35 59
16 22 29 45 29 52 0 7 9 24 20 38 25 31 48 136 33 145 -6 4 -13 17 -17 30 -4
12 -11 22 -15 22 -12 0 -87 -100 -112 -146 l-20 -39 5 45 c4 52 70 310 86 341
7 11 9 27 6 34 -5 14 -99 66 -113 64 -4 -1 -30 -24 -58 -50z"/>
<path d="M6320 5574 c-135 -70 -210 -172 -216 -296 -1 -32 -5 -61 -8 -66 -3
-5 -32 -19 -65 -32 -59 -22 -59 -22 -48 -48 32 -76 70 -100 106 -68 9 7 28 16
42 19 23 6 30 0 59 -41 38 -55 104 -109 159 -128 90 -31 252 51 305 154 9 18
14 36 12 41 -7 11 -56 20 -56 11 0 -12 -250 -90 -286 -90 -37 0 -96 19 -106
34 -22 32 -6 44 125 101 228 99 297 152 297 226 0 46 -8 64 -63 137 -43 57
-99 92 -144 91 -15 0 -66 -20 -113 -45z m224 -90 c48 -19 -18 -76 -194 -168
-72 -37 -134 -66 -137 -62 -8 7 71 137 100 164 51 48 182 85 231 66z"/>
<path d="M10036 5342 c5 -4 21 -18 36 -31 21 -18 44 -25 103 -31 59 -6 81 -13
101 -31 l25 -23 -31 -24 c-16 -13 -30 -29 -30 -37 0 -7 -10 -19 -22 -28 -13
-8 -31 -29 -41 -46 l-18 -31 33 -20 c18 -11 39 -20 46 -20 6 0 12 -6 12 -14 0
-8 10 -22 22 -30 18 -13 19 -17 7 -32 -11 -14 -26 -15 -96 -10 -54 5 -83 3
-83 -3 0 -6 -9 -15 -20 -21 -15 -8 -25 -7 -42 4 -43 28 -228 67 -333 71 -182
6 -1213 80 -1221 88 -3 2 7 7 21 11 14 4 25 11 25 16 0 32 -185 43 -215 14
-12 -13 -13 -19 -4 -24 6 -5 -28 -11 -77 -15 -232 -18 -239 -19 -242 -36 -2
-11 15 -27 50 -48 l53 -31 -38 0 c-45 0 -72 -13 -87 -41 -14 -24 2 -49 31 -49
15 0 10 -8 -21 -36 -43 -39 -49 -66 -27 -118 11 -26 11 -32 -5 -48 -23 -23
-11 -50 30 -72 l27 -15 -48 -1 c-30 0 -54 6 -63 15 -24 24 -136 21 -158 -4
-27 -29 -11 -41 53 -41 44 0 65 -5 82 -20 l24 -19 -140 -2 c-77 -1 -144 0
-150 2 -5 2 -41 5 -80 7 -57 3 -86 -1 -152 -24 -94 -31 -110 -54 -38 -54 25 0
45 -4 45 -9 0 -17 -61 -33 -132 -35 -54 -1 -84 -7 -116 -23 -23 -13 -60 -23
-82 -23 -35 0 -40 -3 -40 -23 0 -13 8 -31 18 -40 24 -22 97 -47 136 -47 17 0
41 -7 53 -15 11 -8 47 -18 79 -21 54 -6 108 -23 77 -24 -7 0 -13 -7 -13 -15 0
-17 30 -35 58 -35 10 0 31 -11 45 -24 24 -22 131 -55 184 -57 10 0 -2 -10 -27
-23 -25 -12 -44 -27 -43 -33 5 -25 -56 -32 -184 -22 -70 5 -247 18 -393 29
-146 11 -332 25 -415 31 -148 11 -306 9 -730 -11 -110 -5 -324 -9 -475 -10
-151 -1 -296 -5 -322 -9 -33 -5 -51 -4 -60 4 -17 17 -96 26 -104 13 -4 -6 -25
-8 -50 -4 -24 3 -66 1 -93 -4 -55 -10 -131 -41 -131 -53 0 -16 29 -18 52 -4
50 32 290 55 306 30 9 -13 874 1 1066 17 202 16 405 12 751 -15 176 -14 416
-30 533 -37 l212 -12 28 22 c15 12 38 27 52 33 32 14 60 39 60 55 0 13 -50 33
-132 54 -26 7 -62 23 -80 36 -17 13 -43 24 -56 24 -19 0 -23 4 -19 20 8 29
-19 50 -63 50 -46 0 -220 44 -263 67 l-32 17 42 7 c23 4 53 15 68 25 15 10 61
20 110 25 94 10 145 30 145 58 0 10 -10 22 -22 28 -20 9 -17 11 30 23 40 9
107 11 265 5 175 -5 215 -4 231 8 41 31 -20 75 -108 78 -28 1 -33 3 -16 7 14
2 69 -1 123 -9 118 -15 138 -7 93 40 -26 27 -28 33 -17 59 10 24 9 36 -4 68
l-16 38 48 49 c46 46 47 49 29 63 -11 8 -27 14 -35 14 -27 1 19 30 47 30 31 0
62 17 62 35 0 8 -14 25 -30 37 -27 20 -29 23 -13 30 10 3 41 7 68 7 92 2 179
20 194 41 11 16 25 20 71 20 52 0 57 -2 56 -22 -1 -18 6 -23 40 -29 121 -21
430 -45 1139 -89 187 -11 273 -27 372 -66 l65 -26 22 21 c20 19 30 21 94 15
82 -8 122 9 122 50 0 23 -52 80 -96 104 -16 9 -15 14 25 67 23 31 53 61 67 67
71 33 -34 118 -146 118 -19 0 -48 9 -65 20 -28 18 -81 29 -59 12z"/>
<path d="M936 5170 c-9 -57 -35 -139 -52 -165 -21 -33 -37 -140 -30 -199 5
-35 18 -70 37 -99 46 -69 196 -225 246 -253 88 -53 371 -153 533 -190 l35 -8
-45 -7 c-25 -5 -71 -20 -102 -35 l-57 -27 -57 18 c-50 16 -80 17 -224 12 -255
-10 -557 -45 -673 -77 -54 -16 -77 -42 -77 -89 0 -130 54 -173 217 -173 61 0
82 5 130 30 32 16 102 42 157 56 54 14 119 35 144 46 55 25 64 25 110 1 79
-40 158 -36 183 11 6 11 34 30 63 43 76 33 301 95 374 102 59 6 62 5 62 -16 0
-38 -43 -71 -92 -71 -67 0 -118 -18 -118 -40 0 -22 51 -40 116 -40 50 0 59
-10 107 -110 19 -41 50 -88 67 -105 31 -30 33 -30 130 -28 54 1 262 22 462 47
199 25 437 52 528 61 413 37 960 65 1298 65 133 0 211 4 207 10 -3 5 -13 6
-21 3 -8 -3 -26 0 -40 7 -41 23 -687 4 -1199 -35 -356 -27 -973 -99 -1165
-135 -81 -15 -139 -12 -174 9 -36 23 -56 54 -97 153 -16 40 -35 76 -42 80 -7
4 -42 8 -79 8 -37 0 -70 5 -73 10 -4 6 18 10 60 10 82 0 132 19 141 54 3 14 4
33 0 41 -8 22 4 45 23 45 10 0 26 7 37 15 19 15 19 15 0 30 -27 20 -33 19 -62
-10 -17 -17 -36 -25 -62 -26 -20 0 -66 -9 -102 -19 -36 -10 -115 -32 -177 -49
-128 -34 -173 -55 -180 -82 -3 -11 -21 -23 -44 -30 -33 -10 -46 -9 -96 10 -88
35 -105 36 -159 8 -27 -13 -74 -30 -104 -36 -83 -19 -180 -52 -180 -61 0 -15
-74 -33 -135 -33 -70 0 -159 19 -175 38 -6 8 -10 42 -8 81 l3 67 40 14 c78 27
260 53 469 67 291 21 417 25 411 17 -6 -11 40 -31 68 -31 12 0 49 14 82 30 34
17 76 30 96 30 50 0 69 8 69 31 0 23 -19 32 -128 59 -170 42 -502 162 -502
182 0 5 -49 61 -110 123 -60 62 -112 125 -116 140 -4 15 -4 69 -2 121 4 79 9
100 31 132 34 52 45 97 37 157 l-6 50 -8 -45z"/>
</g>
</svg>
